<svg width="105" height="35" xmlns="http://www.w3.org/2000/svg"><g fill="#FFF" fill-rule="evenodd"><path d="M100.593 32.347V3.556h-30.02v28.791h30.02zm-6.842-20.526c-2.32-1.326-4.62-2.028-6.784-2.028-2.32 0-4.23.741-5.711 2.223-1.52 1.423-2.32 3.196-2.32 5.419 0 2.124.78 3.937 2.261 5.419 1.58 1.384 3.45 2.066 5.712 2.066 2.417 0 4.776-.74 7.095-2.222v3.1c-2.163 1.188-4.58 1.773-7.232 1.773-2.26 0-4.132-.448-5.711-1.325a11.097 11.097 0 01-3.684-3.685c-.877-1.676-1.384-3.352-1.384-5.126 0-2.963 1.033-5.36 3.158-7.33 2.066-1.969 4.62-3.002 7.621-3.002 2.164 0 4.484.546 6.998 1.677l-.019 3.04zM67.22 3.556H37.202v28.791h30.02V3.556zM46.403 7.844h5.224c1.677 0 2.963.195 3.88.643.935.488 1.617 1.092 2.066 1.813.487.78.74 1.677.74 2.71 0 1.969-.994 3.353-3.06 4.19 1.481.254 2.651.839 3.49 1.814.837.877 1.227 2.027 1.286 3.294-.04.994-.293 1.91-.78 2.71-.546.78-1.286 1.423-2.32 1.968-1.033.488-2.26.741-3.781.741h-6.745V7.844z"/><path d="M51.12 16.343c1.52 0 2.611-.292 3.255-.838.643-.643.974-1.384.974-2.32 0-1.871-1.228-2.846-3.645-2.846h-2.456v6.004h1.871zm.78 2.573h-2.652v6.257h2.846c1.326 0 2.417-.097 3.1-.292.643-.35 1.091-.74 1.383-1.189.293-.487.488-1.033.488-1.618-.059-.585-.195-1.13-.546-1.618-.292-.546-.78-.936-1.481-1.189-.624-.253-1.696-.41-3.139-.35zM33.751 3.556H3.731v28.791h30.02V3.556zM12.874 27.727V7.844h5.224c1.676 0 2.904.195 3.84.643.936.449 1.677 1.092 2.125 1.872.487.74.74 1.618.78 2.65-.059 1.97-1.034 3.334-3.1 4.23 1.52.254 2.651.839 3.49 1.775.838.877 1.286 2.027 1.286 3.294 0 1.033-.253 1.969-.78 2.71-.546.838-1.286 1.481-2.26 1.968-1.034.488-2.32.741-3.841.741h-6.764z"/><path d="M18.195 10.34H15.74v6.003h1.91c1.482 0 2.554-.292 3.197-.838.644-.585.975-1.384.975-2.261.02-1.91-1.228-2.905-3.626-2.905zm.195 8.576h-2.65v6.257h2.806c1.482 0 2.554-.097 3.197-.292.546-.253.975-.585 1.326-1.092a4.049 4.049 0 00.487-1.715c-.058-.682-.253-1.228-.546-1.618a2.622 2.622 0 00-1.481-1.13c-.683-.312-1.774-.41-3.139-.41z"/></g></svg>