<svg width="113" height="35" xmlns="http://www.w3.org/2000/svg"><path d="M63.158 4.023l-.31.062c-.171.04-1.916.365-3.878.73-1.963.364-3.646.674-3.739.697-.14.031-.17.086-.155.334.015.264.039.295.326.357.985.217 1.163.295 1.528.667.442.465.651 1.055.783 2.288.1.985.124 17.909.023 20.407l-.054 1.481.799.17c3.025.652 6.042.877 7.935.59 2.357-.349 4.08-1.163 5.545-2.598 2.094-2.071 3.103-5.003 3.025-8.61-.077-1.853-.388-3.071-1.163-4.576-1.055-2.04-2.831-3.467-4.863-3.886-1.513-.318-3.475-.07-4.957.629-.372.17-.729.31-.79.31-.102 0-.11-.574-.086-4.522l.03-4.53zm-61.088.52l.023.489.023.48.698.086c.932.116 1.272.217 1.645.488.574.412.923 1.016 1.14 1.97.341 1.482.465 4.825.411 11.069-.062 6.6-.147 7.973-.566 9.307-.35 1.094-.993 1.675-2.055 1.854-.293.046-.708.124-.922.17l-.39.086v.838h13.884v-.427c0-.233-.023-.427-.046-.427-.373 0-2.095-.372-2.374-.512-.985-.496-1.435-1.675-1.613-4.18-.124-1.784-.248-7.035-.17-7.113.077-.077 3.35.055 3.738.148 1.055.256 1.877 1.295 2.28 2.916l.186.714.473.023.474.023V13.54h-.505c-.473 0-.504.016-.504.179 0 .294-.294 1.225-.574 1.807-.434.923-1.047 1.473-1.83 1.652-.194.046-1.102.116-2.017.163-1.287.054-1.675.054-1.73-.024-.085-.131.117-10.346.218-10.82l.039-.178 2.854.023 2.846.024.66.24c1.535.55 2.645 1.668 3.568 3.614.201.443.473 1.079.589 1.42.116.341.217.636.225.644.015.015.271-.047.566-.14l.55-.17-.038-2.53a179.705 179.705 0 00-.085-3.714l-.04-1.187H2.07zm52.005 7.151c-.085 0-.17 0-.263.008-1.924.109-3.638 1.388-4.864 3.638-.209.38-.418.682-.473.682-.077 0-.085-.426-.046-2.133l.054-2.14-.186.046c-.1.023-1.652.334-3.444.698-3.847.768-4.382.884-4.467.939-.04.023-.07.162-.07.31 0 .287-.039.271.837.41 1.203.195 1.622.784 1.8 2.49.24 2.234.147 10.93-.124 12.116-.14.605-.497 1.194-.853 1.396-.14.078-.559.202-.931.28l-.69.131-.024.411-.023.404h11.41v-.838l-.606-.054c-1.38-.117-1.76-.256-2.125-.776-.527-.76-.644-2.164-.644-7.842v-4.436l.194-.21c.24-.256 1.001-.612 1.536-.729 1.086-.225 2.482-.03 3.568.504.31.156.582.264.597.249.031-.031 1.823-4.755 1.877-4.957.024-.085-.077-.17-.38-.287-.566-.224-1.062-.325-1.66-.31zm-23.183.062c-2.785 0-5.026.869-6.756 2.599-1.846 1.861-2.823 4.46-2.823 7.5 0 3.164.884 5.716 2.598 7.5.939.985 1.862 1.575 3.18 2.048.466.163.807.24 2.056.473.108.023.822.023 1.59.008 1.04-.024 1.567-.07 2.055-.179 1.373-.325 2.474-.814 3.452-1.543 2.389-1.784 3.692-4.514 3.816-7.974.116-3.405-.908-6.305-2.901-8.182-1.606-1.52-3.638-2.25-6.267-2.25zm55.263 0c-2.637 0-4.809.877-6.515 2.63-1.396 1.396-2.172 2.962-2.637 5.165-.155.667-.155 1.009-.155 2.405 0 1.388 0 1.745.155 2.38.853 4.073 3.568 6.749 7.446 7.44.93.17 2.404.185 3.335.03 1.784-.295 3.568-1.156 4.809-2.358.698-.66.93-.977.853-1.148-.233-.442-.233-.442-.93-.039-1.01.644-1.552.823-2.793.955-1.396.147-2.792-.094-3.956-.73-.853-.418-1.861-1.38-2.327-2.249-.62-1.187-1.008-2.567-1.085-4.343-.078-.753-.078-.939 0-.993.077-.039 2.637-.07 5.817-.07h5.662v-.225c0-.512-.155-1.877-.31-2.598-.621-2.893-2.172-4.949-4.5-5.779-.852-.333-1.705-.473-2.869-.473zm16.986.047c-1.706 0-1.861.015-2.56.201-2.093.567-3.645 1.73-4.42 3.351-.388.869-.543 1.528-.543 2.567 0 1.474.388 2.568 1.318 3.522.698.814 1.707 1.396 3.413 2.024 1.319.497 2.715 1.18 3.258 1.613.31.256.543.551.698.877.232.473.31.535.31 1.272 0 .713-.078.822-.31 1.295-.543 1.249-1.707 1.862-3.258 1.738-2.094-.171-3.568-1.56-4.809-4.491-.31-.76-.31-.776-.775-.597l-.233.085.077 2.73c0 2.428 0 2.746.156 2.831.31.264 2.56.791 4.11.977 1.241.148 3.025.148 3.956.016 3.335-.504 5.43-2.273 5.972-4.972.31-1.303.156-2.753-.31-3.723-.62-1.357-1.784-2.172-4.498-3.335-2.017-.853-3.258-1.582-3.723-2.242-.466-.535-.543-.954-.543-1.675 0-1.086.387-1.916 1.163-2.435.698-.435 1.474-.543 2.482-.318 1.163.279 2.017.985 2.792 2.303.233.419.776 1.598 1.009 2.327.077.109.077.116.387.039.156-.054.31-.117.388-.148V15.17l-.077-2.42-.31-.116c-.466-.202-1.707-.543-2.483-.69-.62-.117-1.163-.14-2.637-.14zm-72.707 1.272c.745 0 1.156.186 1.738.768 1.388 1.404 2.047 4.072 2.04 8.268-.008 3.35-.342 5.46-1.086 6.887-.365.69-1.04 1.327-1.59 1.49-2.125.628-3.638-1.389-4.227-5.624-.194-1.365-.187-5.088 0-6.655.418-3.405 1.466-5.126 3.125-5.134zm55.333.008c1.319-.008 2.172 1.846 2.327 5.22v.961l-1.318.047c-.776.023-2.017.054-2.793.07l-1.473.023v-.31c0-.179.077-.629.155-1.016.465-3.126 1.629-4.995 3.102-4.995zM65.02 14.122c.66 0 .745.023 1.296.295 1.334.659 2.249 2.295 2.676 4.785.155.923.178 3.436.03 4.538-.348 2.707-1.233 4.894-2.412 5.956-.465.42-.907.644-1.466.753-.41.077-.535.077-1.272.023-.318-.023-.387-.062-.45-.225-.1-.264-.217-9.354-.17-12.984l.039-2.839.52-.147c.34-.1.744-.155 1.21-.155z" fill="#FFF" fill-rule="evenodd"/></svg>