<svg width="162" height="30" xmlns="http://www.w3.org/2000/svg"><g fill="none" fill-rule="evenodd"><path d="M51.98 9.24l.408-2.4-.24-.24H41.3l-.24.24-2.88 16.32.24.24h2.928l.24-.24 1.152-6.48.24-.24h7.032l.24-.24.432-2.4-.24-.24H43.58l-.24-.24.624-3.6.24-.24h7.536l.24-.24zm1.704 2.4L52.46 18.6c-.096.48-.12.888-.12 1.248 0 2.256 1.32 3.792 4.056 3.792 1.92 0 2.832-1.2 2.832-1.2h.24l.096.72.216.24h2.64l.264-.24 2.04-11.52-.24-.24h-2.88l-.24.24-1.104 6.24c-.288 1.68-1.2 2.88-2.88 2.88-1.176 0-1.584-.648-1.584-1.512 0-.216.024-.408.072-.648l1.224-6.96-.24-.24h-2.928l-.24.24zm21.456 2.4l.432-2.4-.24-.24h-1.68c-1.92 0-2.52.96-2.52.96h-.24l-.12-.72-.24-.24h-2.688l-.24.24-2.04 11.52.216.24h2.928l.264-.24 1.032-5.76c.408-2.256 1.272-3.12 3.192-3.12H74.9l.24-.24zm11.592 9.12l1.224-6.96c.072-.408.096-.768.096-1.128 0-2.232-1.488-3.912-3.96-3.912-1.68 0-2.568.648-3.12 1.2h-.24l-.12-.72-.24-.24h-2.688l-.24.24-2.04 11.52.24.24h2.928l.24-.24 1.056-6c.384-2.16 1.488-3.12 3.168-3.12 1.176 0 1.584.624 1.584 1.512 0 .192-.024.432-.072.648l-1.224 6.96.24.24h2.928l.24-.24zm14.448-5.76c.072-.48.12-.936.12-1.272 0-2.712-1.776-4.968-5.304-4.968-4.32 0-6.456 3.456-6.456 7.176 0 2.712 1.56 5.304 5.52 5.304 3.6 0 4.704-2.16 5.184-3.6l-.24-.24h-3.072l-.24.24c-.312.48-.912.72-1.632.72-1.704 0-2.088-1.128-2.088-1.728 0-.072.024-.144.024-.192l.24-.24h7.536l.24-.24.168-.96zm-3.648-1.2h-3.84l-.192-.24c.048-.24.576-1.92 2.496-1.92 1.632 0 1.848 1.176 1.848 1.704a.99.99 0 01-.024.216l-.288.24zm16.08 6.96l2.04-11.52-.24-.24h-2.688l-.24.24-.408.792h-.24s-.72-1.272-2.88-1.272c-4.2 0-6.528 3.744-6.528 7.32 0 2.832 2.064 5.16 4.944 5.16 1.536 0 2.352-.72 2.736-1.104h.24l.096.624.24.24h2.688l.24-.24zm-4.44-9.12c1.56 0 2.16.936 2.16 2.304 0 2.232-1.104 4.416-3.336 4.416-1.536 0-2.16-.936-2.16-2.28 0-2.208 1.056-4.44 3.336-4.44zm9.072-2.4l-1.224 6.96c-.096.48-.12.888-.12 1.248 0 2.256 1.32 3.792 4.056 3.792 1.92 0 2.832-1.2 2.832-1.2h.24l.096.72.216.24h2.64l.264-.24 2.04-11.52-.24-.24h-2.88l-.24.24-1.104 6.24c-.288 1.68-1.2 2.88-2.88 2.88-1.176 0-1.584-.648-1.584-1.512 0-.216.024-.408.072-.648l1.224-6.96-.24-.24h-2.928l-.24.24zm17.544 7.992l2.64 3.528.48.24h1.08l.24-.24.432-2.4-2.664-3.216v-.24l3.6-3.264.432-2.4-.24-.24h-1.8l-.48.24-3.336 3.264h-.24l-2.424-3.264-.48-.24h-1.08l-.24.24-.432 2.4 2.472 2.976-.024.24-3.864 3.504-.432 2.4.24.24h1.8l.48-.24 3.6-3.528h.24zm13.488-9.432l.576-3.36-.24-.24h-3.408l-.24.24-.552 3.12.24.24h.48l.24.24-.048.24-1.872 2.4-.072.48h1.68l.48-.24 2.352-2.4.384-.72zm11.304 9.408c0-2.472-2.232-3.192-3.528-3.408-1.32-.216-2.664-.24-2.664-1.08 0-.984 1.128-1.08 1.848-1.08 1.104 0 1.56.216 1.56.552a.586.586 0 01-.024.168l.24.24h2.928l.24-.24c.024-.096.048-.216.048-.408 0-1.968-2.136-3.192-4.992-3.192-2.592 0-5.256 1.224-5.256 3.984 0 2.664 2.688 3.24 3.984 3.456 1.296.216 2.208.24 2.208 1.008 0 1.08-1.416 1.152-2.112 1.152-1.08 0-1.728-.192-1.728-.936 0-.096 0-.168.024-.264l-.24-.24h-2.904l-.24.24c-.048.192-.048.36-.048.48 0 1.992 1.896 3.6 5.136 3.6 2.688 0 5.52-1.032 5.52-4.032z" fill="#47353A"/><path d="M6.806 27.566A14.984 14.984 0 010 15C0 6.716 6.716 0 15 0c8.284 0 15 6.716 15 15 0 8.284-6.716 15-15 15a15.06 15.06 0 01-3.158-.333c.734-3.058 1.526-6.675 2.375-10.85h4.148l.426-1.907h-4.26l.852-3.25c.583-2.243 1.214-3.947 1.894-5.113.68-1.166 1.439-1.749 2.276-1.749.299 0 .508.075.628.224.104.165.157.3.157.404 0 .075-.124.325-.37.751-.247.426-.37.84-.37 1.245 0 .582.224 1.09.673 1.524.448.434.979.65 1.591.65.628 0 1.17-.22 1.626-.661.456-.441.684-1.028.684-1.76 0-1.24-.445-2.175-1.334-2.803-.89-.628-2.03-.942-3.42-.942-1.733 0-3.423.71-5.067 2.13-1.36 1.196-2.477 2.77-3.352 4.72-.874 1.95-1.446 3.494-1.715 4.63H5.921l-.426 1.906h3.363l-1.883 7.96-.169.79z" fill="#EEAE9F"/></g></svg>