<svg width="108" height="20" xmlns="http://www.w3.org/2000/svg"><path d="M34.653 6.16l.272-1.6-.16-.16h-7.232l-.16.16-1.92 10.88.16.16h1.952l.16-.16.768-4.32.16-.16h4.688l.16-.16.288-1.6-.16-.16h-4.576l-.16-.16.416-2.4.16-.16h5.024l.16-.16zm1.136 1.6l-.816 4.64a4.14 4.14 0 00-.08.832c0 1.504.88 2.528 2.704 2.528 1.28 0 1.888-.8 1.888-.8h.16l.064.48.144.16h1.76l.176-.16 1.36-7.68-.16-.16h-1.92l-.16.16-.736 4.16c-.192 1.12-.8 1.92-1.92 1.92-.784 0-1.056-.432-1.056-1.008a2.1 2.1 0 01.048-.432l.816-4.64-.16-.16H35.95l-.16.16zm14.304 1.6l.288-1.6-.16-.16h-1.12c-1.28 0-1.68.64-1.68.64h-.16l-.08-.48-.16-.16H45.23l-.16.16-1.36 7.68.144.16h1.952l.176-.16.688-3.84c.272-1.504.848-2.08 2.128-2.08h1.136l.16-.16zm7.728 6.08l.816-4.64c.048-.272.064-.512.064-.752 0-1.488-.992-2.608-2.64-2.608-1.12 0-1.712.432-2.08.8h-.16l-.08-.48-.16-.16H51.79l-.16.16-1.36 7.68.16.16h1.952l.16-.16.704-4c.256-1.44.992-2.08 2.112-2.08.784 0 1.056.416 1.056 1.008a2.1 2.1 0 01-.048.432l-.816 4.64.16.16h1.952l.16-.16zm9.632-3.84c.048-.32.08-.624.08-.848 0-1.808-1.184-3.312-3.536-3.312-2.88 0-4.304 2.304-4.304 4.784 0 1.808 1.04 3.536 3.68 3.536 2.4 0 3.136-1.44 3.456-2.4l-.16-.16h-2.048l-.16.16c-.208.32-.608.48-1.088.48-1.136 0-1.392-.752-1.392-1.152 0-.048.016-.096.016-.128l.16-.16h5.024l.16-.16.112-.64zm-2.432-.8h-2.56l-.128-.16c.032-.16.384-1.28 1.664-1.28 1.088 0 1.232.784 1.232 1.136a.66.66 0 01-.016.144l-.192.16zm10.72 4.64l1.36-7.68-.16-.16H75.15l-.16.16-.272.528h-.16s-.48-.848-1.92-.848c-2.8 0-4.352 2.496-4.352 4.88 0 1.888 1.376 3.44 3.296 3.44 1.024 0 1.568-.48 1.824-.736h.16l.064.416.16.16h1.792l.16-.16zm-2.96-6.08c1.04 0 1.44.624 1.44 1.536 0 1.488-.736 2.944-2.224 2.944-1.024 0-1.44-.624-1.44-1.52 0-1.472.704-2.96 2.224-2.96zm6.048-1.6l-.816 4.64a4.14 4.14 0 00-.08.832c0 1.504.88 2.528 2.704 2.528 1.28 0 1.888-.8 1.888-.8h.16l.064.48.144.16h1.76l.176-.16 1.36-7.68-.16-.16h-1.92l-.16.16-.736 4.16c-.192 1.12-.8 1.92-1.92 1.92-.784 0-1.056-.432-1.056-1.008a2.1 2.1 0 01.048-.432l.816-4.64-.16-.16H78.99l-.16.16zm11.696 5.328l1.76 2.352.32.16h.72l.16-.16.288-1.6-1.776-2.144v-.16l2.4-2.176.288-1.6-.16-.16h-1.2l-.32.16-2.224 2.176h-.16L89.005 7.76l-.32-.16h-.72l-.16.16-.288 1.6 1.648 1.984-.016.16-2.576 2.336-.288 1.6.16.16h1.2l.32-.16 2.4-2.352h.16zM99.517 6.8l.384-2.24-.16-.16H97.47l-.16.16-.368 2.08.16.16h.32l.16.16-.032.16-1.248 1.6-.048.32h1.12l.32-.16 1.568-1.6.256-.48zm7.536 6.272c0-1.648-1.488-2.128-2.352-2.272-.88-.144-1.776-.16-1.776-.72 0-.656.752-.72 1.232-.72.736 0 1.04.144 1.04.368 0 .064-.016.112-.016.112l.16.16h1.952l.16-.16c.016-.064.032-.144.032-.272 0-1.312-1.424-2.128-3.328-2.128-1.728 0-3.504.816-3.504 2.656 0 1.776 1.792 2.16 2.656 2.304.864.144 1.472.16 1.472.672 0 .72-.944.768-1.408.768-.72 0-1.152-.128-1.152-.624 0-.064 0-.112.016-.176l-.16-.16h-1.936l-.16.16c-.032.128-.032.24-.032.32 0 1.328 1.264 2.4 3.424 2.4 1.792 0 3.68-.688 3.68-2.688zM4.537 18.378A9.991 9.991 0 010 10C0 4.477 4.477 0 10 0s10 4.477 10 10-4.477 10-10 10a10.04 10.04 0 01-2.105-.222 216.01 216.01 0 001.583-7.234h2.765l.284-1.27h-2.84l.568-2.168c.389-1.495.81-2.63 1.263-3.408.454-.777.96-1.166 1.517-1.166.2 0 .34.05.419.15.07.11.105.199.105.269 0 .05-.083.216-.247.5-.165.284-.247.56-.247.83 0 .389.15.727.449 1.016.299.29.652.434 1.061.434.419 0 .78-.147 1.084-.441.304-.294.456-.685.456-1.173 0-.828-.297-1.45-.89-1.869-.593-.418-1.353-.628-2.28-.628-1.155 0-2.281.474-3.378 1.42-.906.798-1.651 1.846-2.234 3.147-.583 1.3-.964 2.33-1.144 3.087H3.947l-.284 1.27h2.242L4.65 17.851l-.113.527z" fill="#FFF" fill-rule="evenodd"/></svg>