<svg width="158" height="35" xmlns="http://www.w3.org/2000/svg"><path d="M3.016 4.063c4.284.005 8.568-.058 12.852.037 3.3.074 5.885 2.316 6.443 5.379.631 3.468-1.169 6.426-3.943 7.221-.068.021-.126.084-.22.153 2.647.758 4.22 2.505 4.668 5.131.726 4.327-1.658 7.884-6.169 8.384-1 .11-2.015.11-3.026.116-3.537.021-7.074.016-10.61.027.005-8.816.005-17.632.005-26.448zM8.71 25.458c.073.026.147.074.22.074 1.774.005 3.553.068 5.327-.016 1.831-.09 2.92-1.216 2.974-2.874.047-1.668-.958-2.868-2.753-3.084-1.137-.137-2.295-.074-3.442-.09-.763-.01-1.521 0-2.321 0-.005 2.016-.005 3.964-.005 5.99zm-.043-10.916c1.653 0 3.227.005 4.795 0 .3 0 .61 0 .905-.058 1.11-.22 1.948-.79 2.237-1.947.463-1.842-.71-3.437-2.62-3.532-.89-.042-1.78-.01-2.67-.01H8.7c-.016.19-.037.305-.037.426.005 1.668.005 3.342.005 5.121zm96.496 16.453c-.668-.127-1.347-.221-2.005-.38-5.18-1.241-7.821-5.7-7.369-10.626.38-4.126 2.458-7.142 6.422-8.536 5.531-1.948 11.942.684 12.889 8.036.126.974.121 1.964.179 3.032H101c.332 1.81 1.247 3.084 2.837 3.758 2.59 1.1 5.016.553 7.305-.921.137-.09.258-.19.39-.284.01-.01.036 0 .131 0 .7 1.031 1.421 2.094 2.237 3.29-.737.457-1.416.957-2.158 1.33-1.363.685-2.831 1.048-4.358 1.18-.173.015-.342.079-.516.12h-1.705zm5.18-11.953c.1-2.374-2.164-4.19-5.027-4.074-2.384.095-4.5 2.11-4.248 4.074h9.274zm15.32 11.953c-.826-.169-1.663-.284-2.468-.506-3.858-1.063-6.521-4.331-6.874-8.32-.332-3.764.758-6.953 3.779-9.327 4.579-3.6 13.574-2.779 15.363 5.732.126.61.205 1.237.242 1.858.042.663.01 1.326.01 2.09h-14.183c.12 1.062.536 1.92 1.22 2.625 1.57 1.621 3.527 1.927 5.643 1.553 1.347-.237 2.594-.747 3.71-1.71a1551.84 1551.84 0 002.284 3.347c-.594.4-1.131.82-1.726 1.142-1.468.805-3.063 1.232-4.726 1.384-.195.016-.384.084-.574.126-.568.006-1.131.006-1.7.006zm-4.1-11.958h9.284c.121-2.3-2.09-4.132-4.868-4.08-2.463.054-4.595 2-4.416 4.08zm-89.8 11.958c-.605-.127-1.216-.232-1.82-.374-3.732-.89-5.932-3.679-5.938-7.521-.005-3.679 0-7.358 0-11.037v-.658h5.042v.7c0 3.48.01 6.953-.005 10.432-.005 1.579.474 2.91 1.969 3.6 1.62.742 3.278.716 4.778-.353 1.1-.779 1.406-1.979 1.411-3.263.005-3.458 0-6.916 0-10.368v-.758h4.99v11.594c0 4.39-2.737 7.411-7.116 7.869-.216.02-.427.09-.642.137h-2.669zm47.611-.548V4.08h18.342v2.558c0 .568-.037 1.137.01 1.695.048.557-.179.668-.69.663-3.62-.021-7.236-.01-10.857-.01h-1.142v5.552h.684c2.732 0 5.458.016 8.19-.01.552-.006.678.168.668.689-.032 1.39-.01 2.779-.01 4.237H85v10.99c-1.91.004-3.737.004-5.626.004zm57.616-.01V12.042c0-.774 0-.779.8-.774 2.768.027 5.547-.094 8.3.121 3.92.306 6.994 2.069 8.447 5.943 1.479 3.936.352 8.426-2.648 10.884-1.768 1.447-3.847 2.163-6.089 2.242-2.847.105-5.7.031-8.547.037-.058 0-.116-.027-.264-.058zm4.81-4.048h2.774c3.258 0 5.305-1.836 5.668-5.073.263-2.327-.995-4.642-3-5.463-1.763-.721-3.61-.337-5.447-.442.005 3.694.005 7.289.005 10.978zM52.358 15.71h-8.542v-4.326h15.442c0 .816-.042 1.637.01 2.453.048.752-.179 1.331-.652 1.92-2.569 3.196-5.095 6.427-7.637 9.643-.137.174-.268.353-.479.632h8.863v4.41H43.768c0-1.205-.015-2.41.016-3.61.005-.206.216-.421.358-.606 2.605-3.32 5.221-6.637 7.832-9.958.105-.142.2-.294.384-.557zm8.384.006v-3.869c0-.136.021-.273.037-.452h15.395c0 1.163.01 2.305-.016 3.452-.005.174-.174.353-.295.51l-7.958 10.09c-.131.169-.247.342-.452.627h.773c2.506 0 5.01.01 7.521-.01.464-.006.637.11.627.604-.032 1.248-.01 2.5-.01 3.785H60.757c0-1.248-.01-2.474.01-3.7.006-.153.164-.316.274-.453 2.547-3.242 5.095-6.479 7.642-9.721.195-.247.384-.5.669-.863h-8.61z" fill="#FFF" fill-rule="evenodd"/></svg>