<svg width="189" height="35" xmlns="http://www.w3.org/2000/svg"><path d="M13.093 9.854H9.27l.02-4.117-5.66.85v3.177l-2.573.393v2.528h2.655l-.02 11.083c.02.4.652 3.995 4.512 3.77 4.378-.257 4.754-.76 5.144-1.023-.032.032 0-2.155 0-2.155l-2.374.065s-1.34-.09-1.557-1.59c-.006 0-.045-10.099-.045-10.099l3.714.02c.007-.007.007-2.902.007-2.902zM21.318 2L13.68 3.106l.012 1.467 2.03.914.019 19.233-1.921.76.02 1.576 9.373.012v-1.57l-1.889-.829.013-11.373s1.072-.476 2.546-.476c1.48 0 2.157.958 2.157 1.544v10.344l-1.73.772v1.588h9.35v-1.524l-1.921-.946v-11.65s.044-3.698-4.212-3.518c-2.59.013-4.422.836-6.228 2.277.006-.006.006-9.694.019-9.707zm28.499 16.925c.217-3.796-.179-9.849-7.773-9.482-7.447.353-8.385 6.098-8.34 9.803.428 5.996 3.497 8.221 9.253 8.311 4.55-.154 6.202-2.573 6.202-2.573v-1.62s-2.137.649-4.383.63c-5.316-.039-5.252-5.076-5.252-5.076h10.293v.007zm-10.312-2.02s-.032-2.445.453-4.001c.389-1.242 1.167-1.647 2.067-1.654 1.5 0 1.876.843 2.042 1.885.243 1.499.204 3.532.185 3.545l-4.747.225zm24.733 6.445h-6.783s-1.015-.11-1.06-1.151c-.044-1.042.69-1.306.69-1.306s1.449.437 2.96.437c1.513 0 7.454-.63 7.454-5.815 0-2.354-1.838-3.699-1.838-3.699l3.287.888-.058-3.403-4.741.881s-2.463-.9-4.212-.9c-1.174 0-7.249.47-7.466 5.84-.153 3.796 3.019 5.211 3 5.211-.02 0-3.025 1.872-3.044 4.2-.02 2.246 2.52 2.934 2.712 2.98h.012-.012c-.243-.007-4.135.726-4.135 3.486 0 2.637 4.32 3.917 8.895 3.943 4.582.02 9.61-1.286 9.61-6.748 0-5.461-5.27-4.844-5.27-4.844zm-4.345-12.003c2.106-.013 2.118 2.187 2.125 3.113v1.647s.28 2.96-1.947 2.972c-2.227.013-2.156-1.718-2.156-2.972v-1.936s-.122-2.811 1.978-2.824zm.012 21.498c-3.133 0-4.256-1.287-4.256-2.528 0-1.242.766-1.75.766-1.75l6.79-.013s1.352.155 1.352 1.351c.007 1.84-1.518 2.94-4.652 2.94zM77.129 9.398l-7.645 1.196V12.1l1.965.959v9.688s.102 4.76 4.729 4.811c3.758.045 5.634-2.592 5.634-2.592v2.547l7.409-.894v-1.37l-1.895-1.1V9.443l-7.613 1.196v1.435l2.01 1.022V23.44s-.517.438-2.182.566c-1.666.13-2.419-1.46-2.419-1.46l.007-13.148zM90.79 10.64s3.65-1.34 6.657-1.34 7.364 1.03 7.364 4.805V24.56l1.864.984v1.248s-1.327.72-3.287.72c-1.952 0-3.65-1.003-3.65-2.508-.427.006-.58 2.476-5.162 2.476-5.348 0-4.933-4.773-4.933-4.863 0-.09-.153-3.564 3.74-4.31 3.848-.74 5.634-1.03 5.634-1.03l-.019-3.512s-.319-2.122-2.138-2.11c-1.818.013-1.8.033-1.8.033l-1.282 3.525h-3.005l.019-4.574zm8.373 13.154v-4.74s-3.835-.348-3.841 2.746c-.007 2.329 1.448 2.599 2.105 2.599.76-.045 1.264-.315 1.736-.605zM114.49 9.237l-7.465 1.183v1.57l1.927.926v11.657l-1.787.926v1.48H117v-1.416l-2.355-.952.013-9.623s1.5-.599 3.005-.599c1.513 0 2.26.168 2.26.168V9.52s-3.204-1.01-5.47 3.493c.007.013.039-3.776.039-3.776zm14.799-5.738v1.524l1.876.907v4.124s-1.314-.63-2.903-.63c-1.59 0-8.079.244-8.264 9.237-.185 8.993 6.751 8.864 6.687 8.864-.063 0 3.178.09 4.646-1.814-.006 0-.013 1.808-.013 1.808l7.339-.9v-1.461l-1.762-.907-.012-21.955-7.594 1.203zm1.87 8.91V24.09s-.606.309-1.736.309c-1.831 0-3.388-1.261-3.376-5.314.013-3.538.524-6.323 2.061-7.05 1.538-.72 2.98.277 3.05.373zm15.864-7.244c0 1.737-1.398 3.146-3.12 3.146-1.724 0-3.121-1.41-3.121-3.146 0-1.737 1.397-3.146 3.12-3.146s3.12 1.41 3.12 3.146zm-.134 4.143l-7.754 1.112v1.506l2.03 1.003V24.6l-1.857.848v1.59h9.329v-1.525l-1.774-.869.026-15.335zm3.541 1.312s3.65-1.338 6.656-1.338c3.005 0 7.364 1.03 7.364 4.805V24.54l1.863.985v1.241s-1.327.727-3.286.727c-1.953 0-3.65-1.004-3.65-2.509-.428.007-.581 2.477-5.163 2.477-5.347 0-4.932-4.773-4.932-4.863 0-.09-.154-3.564 3.739-4.31 3.848-.74 5.635-1.03 5.635-1.03l-.02-3.512s-.319-2.123-2.137-2.11c-1.819.013-1.8.032-1.8.032l-1.282 3.526h-3.006l.02-4.574zm8.379 13.155v-4.741s-3.835-.347-3.842 2.747c-.006 2.328 1.449 2.599 2.106 2.599.76-.045 1.257-.316 1.736-.605zm15.404-14.506l-7.625 1.222v1.46l2.054.978v11.76l-1.876.758v1.634h9.33v-1.608l-1.73-.83V13.27s.932-.437 2.291-.437c1.36 0 2.419.61 2.419 1.962v9.842l-1.915.945-.006 1.448h9.502v-1.544l-1.857-.785V13.798s.127-4.355-4.257-4.355c-4.384 0-6.304 2.328-6.304 2.328l-.026-2.502z" fill="#FFF" fill-rule="evenodd"/></svg>